<mxfile host="app.diagrams.net" modified="2020-11-25T13:24:19.893Z" agent="5.0 (Windows NT 10.0; Win64; x64) AppleWebKit/537.36 (KHTML, like Gecko) Chrome/87.0.4280.66 Safari/537.36" etag="E7I9EVwfDt5FGQ62KOzR" version="13.10.0" type="github">
  <diagram name="Page-1" id="9f46799a-70d6-7492-0946-bef42562c5a5">
    <mxGraphModel dx="1038" dy="588" grid="1" gridSize="10" guides="1" tooltips="1" connect="1" arrows="1" fold="1" page="1" pageScale="1" pageWidth="1100" pageHeight="850" background="#ffffff" math="0" shadow="0">
      <root>
        <mxCell id="0" />
        <mxCell id="1" parent="0" />
        <mxCell id="wcE6s_NSLzB1YOrK4coj-1" value="Aisles" style="shape=table;startSize=30;container=1;collapsible=1;childLayout=tableLayout;fixedRows=1;rowLines=0;fontStyle=1;align=center;resizeLast=1;" vertex="1" parent="1">
          <mxGeometry x="40" y="120" width="180" height="520" as="geometry" />
        </mxCell>
        <mxCell id="wcE6s_NSLzB1YOrK4coj-2" value="" style="shape=partialRectangle;collapsible=0;dropTarget=0;pointerEvents=0;fillColor=none;top=0;left=0;bottom=1;right=0;points=[[0,0.5],[1,0.5]];portConstraint=eastwest;" vertex="1" parent="wcE6s_NSLzB1YOrK4coj-1">
          <mxGeometry y="30" width="180" height="30" as="geometry" />
        </mxCell>
        <mxCell id="wcE6s_NSLzB1YOrK4coj-3" value="PK" style="shape=partialRectangle;connectable=0;fillColor=none;top=0;left=0;bottom=0;right=0;fontStyle=1;overflow=hidden;" vertex="1" parent="wcE6s_NSLzB1YOrK4coj-2">
          <mxGeometry width="30" height="30" as="geometry" />
        </mxCell>
        <mxCell id="wcE6s_NSLzB1YOrK4coj-4" value="AisleID" style="shape=partialRectangle;connectable=0;fillColor=none;top=0;left=0;bottom=0;right=0;align=left;spacingLeft=6;fontStyle=5;overflow=hidden;" vertex="1" parent="wcE6s_NSLzB1YOrK4coj-2">
          <mxGeometry x="30" width="150" height="30" as="geometry" />
        </mxCell>
        <mxCell id="wcE6s_NSLzB1YOrK4coj-5" value="" style="shape=partialRectangle;collapsible=0;dropTarget=0;pointerEvents=0;fillColor=none;top=0;left=0;bottom=0;right=0;points=[[0,0.5],[1,0.5]];portConstraint=eastwest;" vertex="1" parent="wcE6s_NSLzB1YOrK4coj-1">
          <mxGeometry y="60" width="180" height="30" as="geometry" />
        </mxCell>
        <mxCell id="wcE6s_NSLzB1YOrK4coj-6" value="" style="shape=partialRectangle;connectable=0;fillColor=none;top=0;left=0;bottom=0;right=0;editable=1;overflow=hidden;" vertex="1" parent="wcE6s_NSLzB1YOrK4coj-5">
          <mxGeometry width="30" height="30" as="geometry" />
        </mxCell>
        <mxCell id="wcE6s_NSLzB1YOrK4coj-7" value="FriendlyName" style="shape=partialRectangle;connectable=0;fillColor=none;top=0;left=0;bottom=0;right=0;align=left;spacingLeft=6;overflow=hidden;" vertex="1" parent="wcE6s_NSLzB1YOrK4coj-5">
          <mxGeometry x="30" width="150" height="30" as="geometry" />
        </mxCell>
        <mxCell id="wcE6s_NSLzB1YOrK4coj-8" value="" style="shape=partialRectangle;collapsible=0;dropTarget=0;pointerEvents=0;fillColor=none;top=0;left=0;bottom=0;right=0;points=[[0,0.5],[1,0.5]];portConstraint=eastwest;" vertex="1" parent="wcE6s_NSLzB1YOrK4coj-1">
          <mxGeometry y="90" width="180" height="30" as="geometry" />
        </mxCell>
        <mxCell id="wcE6s_NSLzB1YOrK4coj-9" value="" style="shape=partialRectangle;connectable=0;fillColor=none;top=0;left=0;bottom=0;right=0;editable=1;overflow=hidden;" vertex="1" parent="wcE6s_NSLzB1YOrK4coj-8">
          <mxGeometry width="30" height="30" as="geometry" />
        </mxCell>
        <mxCell id="wcE6s_NSLzB1YOrK4coj-10" value="RowIdx" style="shape=partialRectangle;connectable=0;fillColor=none;top=0;left=0;bottom=0;right=0;align=left;spacingLeft=6;overflow=hidden;" vertex="1" parent="wcE6s_NSLzB1YOrK4coj-8">
          <mxGeometry x="30" width="150" height="30" as="geometry" />
        </mxCell>
        <mxCell id="wcE6s_NSLzB1YOrK4coj-11" value="" style="shape=partialRectangle;collapsible=0;dropTarget=0;pointerEvents=0;fillColor=none;top=0;left=0;bottom=0;right=0;points=[[0,0.5],[1,0.5]];portConstraint=eastwest;" vertex="1" parent="wcE6s_NSLzB1YOrK4coj-1">
          <mxGeometry y="120" width="180" height="30" as="geometry" />
        </mxCell>
        <mxCell id="wcE6s_NSLzB1YOrK4coj-12" value="" style="shape=partialRectangle;connectable=0;fillColor=none;top=0;left=0;bottom=0;right=0;editable=1;overflow=hidden;" vertex="1" parent="wcE6s_NSLzB1YOrK4coj-11">
          <mxGeometry width="30" height="30" as="geometry" />
        </mxCell>
        <mxCell id="wcE6s_NSLzB1YOrK4coj-13" value="ColumnIdx" style="shape=partialRectangle;connectable=0;fillColor=none;top=0;left=0;bottom=0;right=0;align=left;spacingLeft=6;overflow=hidden;" vertex="1" parent="wcE6s_NSLzB1YOrK4coj-11">
          <mxGeometry x="30" width="150" height="30" as="geometry" />
        </mxCell>
        <mxCell id="wcE6s_NSLzB1YOrK4coj-29" style="shape=partialRectangle;collapsible=0;dropTarget=0;pointerEvents=0;fillColor=none;top=0;left=0;bottom=0;right=0;points=[[0,0.5],[1,0.5]];portConstraint=eastwest;" vertex="1" parent="wcE6s_NSLzB1YOrK4coj-1">
          <mxGeometry y="150" width="180" height="30" as="geometry" />
        </mxCell>
        <mxCell id="wcE6s_NSLzB1YOrK4coj-30" style="shape=partialRectangle;connectable=0;fillColor=none;top=0;left=0;bottom=0;right=0;editable=1;overflow=hidden;" vertex="1" parent="wcE6s_NSLzB1YOrK4coj-29">
          <mxGeometry width="30" height="30" as="geometry" />
        </mxCell>
        <mxCell id="wcE6s_NSLzB1YOrK4coj-31" value="RackType" style="shape=partialRectangle;connectable=0;fillColor=none;top=0;left=0;bottom=0;right=0;align=left;spacingLeft=6;overflow=hidden;" vertex="1" parent="wcE6s_NSLzB1YOrK4coj-29">
          <mxGeometry x="30" width="150" height="30" as="geometry" />
        </mxCell>
        <mxCell id="wcE6s_NSLzB1YOrK4coj-26" style="shape=partialRectangle;collapsible=0;dropTarget=0;pointerEvents=0;fillColor=none;top=0;left=0;bottom=0;right=0;points=[[0,0.5],[1,0.5]];portConstraint=eastwest;" vertex="1" parent="wcE6s_NSLzB1YOrK4coj-1">
          <mxGeometry y="180" width="180" height="30" as="geometry" />
        </mxCell>
        <mxCell id="wcE6s_NSLzB1YOrK4coj-27" style="shape=partialRectangle;connectable=0;fillColor=none;top=0;left=0;bottom=0;right=0;editable=1;overflow=hidden;" vertex="1" parent="wcE6s_NSLzB1YOrK4coj-26">
          <mxGeometry width="30" height="30" as="geometry" />
        </mxCell>
        <mxCell id="wcE6s_NSLzB1YOrK4coj-28" value="LocationX" style="shape=partialRectangle;connectable=0;fillColor=none;top=0;left=0;bottom=0;right=0;align=left;spacingLeft=6;overflow=hidden;" vertex="1" parent="wcE6s_NSLzB1YOrK4coj-26">
          <mxGeometry x="30" width="150" height="30" as="geometry" />
        </mxCell>
        <mxCell id="wcE6s_NSLzB1YOrK4coj-23" style="shape=partialRectangle;collapsible=0;dropTarget=0;pointerEvents=0;fillColor=none;top=0;left=0;bottom=0;right=0;points=[[0,0.5],[1,0.5]];portConstraint=eastwest;" vertex="1" parent="wcE6s_NSLzB1YOrK4coj-1">
          <mxGeometry y="210" width="180" height="30" as="geometry" />
        </mxCell>
        <mxCell id="wcE6s_NSLzB1YOrK4coj-24" style="shape=partialRectangle;connectable=0;fillColor=none;top=0;left=0;bottom=0;right=0;editable=1;overflow=hidden;" vertex="1" parent="wcE6s_NSLzB1YOrK4coj-23">
          <mxGeometry width="30" height="30" as="geometry" />
        </mxCell>
        <mxCell id="wcE6s_NSLzB1YOrK4coj-25" value="LocationY" style="shape=partialRectangle;connectable=0;fillColor=none;top=0;left=0;bottom=0;right=0;align=left;spacingLeft=6;overflow=hidden;" vertex="1" parent="wcE6s_NSLzB1YOrK4coj-23">
          <mxGeometry x="30" width="150" height="30" as="geometry" />
        </mxCell>
        <mxCell id="wcE6s_NSLzB1YOrK4coj-20" style="shape=partialRectangle;collapsible=0;dropTarget=0;pointerEvents=0;fillColor=none;top=0;left=0;bottom=0;right=0;points=[[0,0.5],[1,0.5]];portConstraint=eastwest;" vertex="1" parent="wcE6s_NSLzB1YOrK4coj-1">
          <mxGeometry y="240" width="180" height="30" as="geometry" />
        </mxCell>
        <mxCell id="wcE6s_NSLzB1YOrK4coj-21" style="shape=partialRectangle;connectable=0;fillColor=none;top=0;left=0;bottom=0;right=0;editable=1;overflow=hidden;" vertex="1" parent="wcE6s_NSLzB1YOrK4coj-20">
          <mxGeometry width="30" height="30" as="geometry" />
        </mxCell>
        <mxCell id="wcE6s_NSLzB1YOrK4coj-22" value="Length" style="shape=partialRectangle;connectable=0;fillColor=none;top=0;left=0;bottom=0;right=0;align=left;spacingLeft=6;overflow=hidden;" vertex="1" parent="wcE6s_NSLzB1YOrK4coj-20">
          <mxGeometry x="30" width="150" height="30" as="geometry" />
        </mxCell>
        <mxCell id="wcE6s_NSLzB1YOrK4coj-17" style="shape=partialRectangle;collapsible=0;dropTarget=0;pointerEvents=0;fillColor=none;top=0;left=0;bottom=0;right=0;points=[[0,0.5],[1,0.5]];portConstraint=eastwest;" vertex="1" parent="wcE6s_NSLzB1YOrK4coj-1">
          <mxGeometry y="270" width="180" height="30" as="geometry" />
        </mxCell>
        <mxCell id="wcE6s_NSLzB1YOrK4coj-18" style="shape=partialRectangle;connectable=0;fillColor=none;top=0;left=0;bottom=0;right=0;editable=1;overflow=hidden;" vertex="1" parent="wcE6s_NSLzB1YOrK4coj-17">
          <mxGeometry width="30" height="30" as="geometry" />
        </mxCell>
        <mxCell id="wcE6s_NSLzB1YOrK4coj-19" value="RackDepth" style="shape=partialRectangle;connectable=0;fillColor=none;top=0;left=0;bottom=0;right=0;align=left;spacingLeft=6;overflow=hidden;" vertex="1" parent="wcE6s_NSLzB1YOrK4coj-17">
          <mxGeometry x="30" width="150" height="30" as="geometry" />
        </mxCell>
        <mxCell id="wcE6s_NSLzB1YOrK4coj-14" style="shape=partialRectangle;collapsible=0;dropTarget=0;pointerEvents=0;fillColor=none;top=0;left=0;bottom=0;right=0;points=[[0,0.5],[1,0.5]];portConstraint=eastwest;" vertex="1" parent="wcE6s_NSLzB1YOrK4coj-1">
          <mxGeometry y="300" width="180" height="30" as="geometry" />
        </mxCell>
        <mxCell id="wcE6s_NSLzB1YOrK4coj-15" style="shape=partialRectangle;connectable=0;fillColor=none;top=0;left=0;bottom=0;right=0;editable=1;overflow=hidden;" vertex="1" parent="wcE6s_NSLzB1YOrK4coj-14">
          <mxGeometry width="30" height="30" as="geometry" />
        </mxCell>
        <mxCell id="wcE6s_NSLzB1YOrK4coj-16" value="AisleWidth" style="shape=partialRectangle;connectable=0;fillColor=none;top=0;left=0;bottom=0;right=0;align=left;spacingLeft=6;overflow=hidden;" vertex="1" parent="wcE6s_NSLzB1YOrK4coj-14">
          <mxGeometry x="30" width="150" height="30" as="geometry" />
        </mxCell>
        <mxCell id="wcE6s_NSLzB1YOrK4coj-47" style="shape=partialRectangle;collapsible=0;dropTarget=0;pointerEvents=0;fillColor=none;top=0;left=0;bottom=0;right=0;points=[[0,0.5],[1,0.5]];portConstraint=eastwest;" vertex="1" parent="wcE6s_NSLzB1YOrK4coj-1">
          <mxGeometry y="330" width="180" height="30" as="geometry" />
        </mxCell>
        <mxCell id="wcE6s_NSLzB1YOrK4coj-48" style="shape=partialRectangle;connectable=0;fillColor=none;top=0;left=0;bottom=0;right=0;editable=1;overflow=hidden;" vertex="1" parent="wcE6s_NSLzB1YOrK4coj-47">
          <mxGeometry width="30" height="30" as="geometry" />
        </mxCell>
        <mxCell id="wcE6s_NSLzB1YOrK4coj-49" value="AccessDirection" style="shape=partialRectangle;connectable=0;fillColor=none;top=0;left=0;bottom=0;right=0;align=left;spacingLeft=6;overflow=hidden;" vertex="1" parent="wcE6s_NSLzB1YOrK4coj-47">
          <mxGeometry x="30" width="150" height="30" as="geometry" />
        </mxCell>
        <mxCell id="wcE6s_NSLzB1YOrK4coj-44" style="shape=partialRectangle;collapsible=0;dropTarget=0;pointerEvents=0;fillColor=none;top=0;left=0;bottom=0;right=0;points=[[0,0.5],[1,0.5]];portConstraint=eastwest;" vertex="1" parent="wcE6s_NSLzB1YOrK4coj-1">
          <mxGeometry y="360" width="180" height="30" as="geometry" />
        </mxCell>
        <mxCell id="wcE6s_NSLzB1YOrK4coj-45" style="shape=partialRectangle;connectable=0;fillColor=none;top=0;left=0;bottom=0;right=0;editable=1;overflow=hidden;" vertex="1" parent="wcE6s_NSLzB1YOrK4coj-44">
          <mxGeometry width="30" height="30" as="geometry" />
        </mxCell>
        <mxCell id="wcE6s_NSLzB1YOrK4coj-46" value="CellCount" style="shape=partialRectangle;connectable=0;fillColor=none;top=0;left=0;bottom=0;right=0;align=left;spacingLeft=6;overflow=hidden;" vertex="1" parent="wcE6s_NSLzB1YOrK4coj-44">
          <mxGeometry x="30" width="150" height="30" as="geometry" />
        </mxCell>
        <mxCell id="wcE6s_NSLzB1YOrK4coj-41" style="shape=partialRectangle;collapsible=0;dropTarget=0;pointerEvents=0;fillColor=none;top=0;left=0;bottom=0;right=0;points=[[0,0.5],[1,0.5]];portConstraint=eastwest;" vertex="1" parent="wcE6s_NSLzB1YOrK4coj-1">
          <mxGeometry y="390" width="180" height="30" as="geometry" />
        </mxCell>
        <mxCell id="wcE6s_NSLzB1YOrK4coj-42" style="shape=partialRectangle;connectable=0;fillColor=none;top=0;left=0;bottom=0;right=0;editable=1;overflow=hidden;" vertex="1" parent="wcE6s_NSLzB1YOrK4coj-41">
          <mxGeometry width="30" height="30" as="geometry" />
        </mxCell>
        <mxCell id="wcE6s_NSLzB1YOrK4coj-43" value="StartCode" style="shape=partialRectangle;connectable=0;fillColor=none;top=0;left=0;bottom=0;right=0;align=left;spacingLeft=6;overflow=hidden;" vertex="1" parent="wcE6s_NSLzB1YOrK4coj-41">
          <mxGeometry x="30" width="150" height="30" as="geometry" />
        </mxCell>
        <mxCell id="wcE6s_NSLzB1YOrK4coj-38" style="shape=partialRectangle;collapsible=0;dropTarget=0;pointerEvents=0;fillColor=none;top=0;left=0;bottom=0;right=0;points=[[0,0.5],[1,0.5]];portConstraint=eastwest;" vertex="1" parent="wcE6s_NSLzB1YOrK4coj-1">
          <mxGeometry y="420" width="180" height="30" as="geometry" />
        </mxCell>
        <mxCell id="wcE6s_NSLzB1YOrK4coj-39" style="shape=partialRectangle;connectable=0;fillColor=none;top=0;left=0;bottom=0;right=0;editable=1;overflow=hidden;" vertex="1" parent="wcE6s_NSLzB1YOrK4coj-38">
          <mxGeometry width="30" height="30" as="geometry" />
        </mxCell>
        <mxCell id="wcE6s_NSLzB1YOrK4coj-40" value="EndCode" style="shape=partialRectangle;connectable=0;fillColor=none;top=0;left=0;bottom=0;right=0;align=left;spacingLeft=6;overflow=hidden;" vertex="1" parent="wcE6s_NSLzB1YOrK4coj-38">
          <mxGeometry x="30" width="150" height="30" as="geometry" />
        </mxCell>
        <mxCell id="wcE6s_NSLzB1YOrK4coj-35" style="shape=partialRectangle;collapsible=0;dropTarget=0;pointerEvents=0;fillColor=none;top=0;left=0;bottom=0;right=0;points=[[0,0.5],[1,0.5]];portConstraint=eastwest;" vertex="1" parent="wcE6s_NSLzB1YOrK4coj-1">
          <mxGeometry y="450" width="180" height="30" as="geometry" />
        </mxCell>
        <mxCell id="wcE6s_NSLzB1YOrK4coj-36" style="shape=partialRectangle;connectable=0;fillColor=none;top=0;left=0;bottom=0;right=0;editable=1;overflow=hidden;" vertex="1" parent="wcE6s_NSLzB1YOrK4coj-35">
          <mxGeometry width="30" height="30" as="geometry" />
        </mxCell>
        <mxCell id="wcE6s_NSLzB1YOrK4coj-37" style="shape=partialRectangle;connectable=0;fillColor=none;top=0;left=0;bottom=0;right=0;align=left;spacingLeft=6;overflow=hidden;" vertex="1" parent="wcE6s_NSLzB1YOrK4coj-35">
          <mxGeometry x="30" width="150" height="30" as="geometry" />
        </mxCell>
        <mxCell id="wcE6s_NSLzB1YOrK4coj-32" style="shape=partialRectangle;collapsible=0;dropTarget=0;pointerEvents=0;fillColor=none;top=0;left=0;bottom=0;right=0;points=[[0,0.5],[1,0.5]];portConstraint=eastwest;" vertex="1" parent="wcE6s_NSLzB1YOrK4coj-1">
          <mxGeometry y="480" width="180" height="30" as="geometry" />
        </mxCell>
        <mxCell id="wcE6s_NSLzB1YOrK4coj-33" style="shape=partialRectangle;connectable=0;fillColor=none;top=0;left=0;bottom=0;right=0;editable=1;overflow=hidden;" vertex="1" parent="wcE6s_NSLzB1YOrK4coj-32">
          <mxGeometry width="30" height="30" as="geometry" />
        </mxCell>
        <mxCell id="wcE6s_NSLzB1YOrK4coj-34" style="shape=partialRectangle;connectable=0;fillColor=none;top=0;left=0;bottom=0;right=0;align=left;spacingLeft=6;overflow=hidden;" vertex="1" parent="wcE6s_NSLzB1YOrK4coj-32">
          <mxGeometry x="30" width="150" height="30" as="geometry" />
        </mxCell>
        <mxCell id="wcE6s_NSLzB1YOrK4coj-50" value="Locations" style="shape=table;startSize=30;container=1;collapsible=1;childLayout=tableLayout;fixedRows=1;rowLines=0;fontStyle=1;align=center;resizeLast=1;" vertex="1" parent="1">
          <mxGeometry x="290" y="120" width="180" height="370" as="geometry" />
        </mxCell>
        <mxCell id="wcE6s_NSLzB1YOrK4coj-54" value="" style="shape=partialRectangle;collapsible=0;dropTarget=0;pointerEvents=0;fillColor=none;top=0;left=0;bottom=1;right=0;points=[[0,0.5],[1,0.5]];portConstraint=eastwest;" vertex="1" parent="wcE6s_NSLzB1YOrK4coj-50">
          <mxGeometry y="30" width="180" height="30" as="geometry" />
        </mxCell>
        <mxCell id="wcE6s_NSLzB1YOrK4coj-55" value="PK" style="shape=partialRectangle;connectable=0;fillColor=none;top=0;left=0;bottom=0;right=0;fontStyle=1;overflow=hidden;" vertex="1" parent="wcE6s_NSLzB1YOrK4coj-54">
          <mxGeometry width="60" height="30" as="geometry" />
        </mxCell>
        <mxCell id="wcE6s_NSLzB1YOrK4coj-56" value="Barcode" style="shape=partialRectangle;connectable=0;fillColor=none;top=0;left=0;bottom=0;right=0;align=left;spacingLeft=6;fontStyle=5;overflow=hidden;" vertex="1" parent="wcE6s_NSLzB1YOrK4coj-54">
          <mxGeometry x="60" width="120" height="30" as="geometry" />
        </mxCell>
        <mxCell id="wcE6s_NSLzB1YOrK4coj-57" value="" style="shape=partialRectangle;collapsible=0;dropTarget=0;pointerEvents=0;fillColor=none;top=0;left=0;bottom=0;right=0;points=[[0,0.5],[1,0.5]];portConstraint=eastwest;" vertex="1" parent="wcE6s_NSLzB1YOrK4coj-50">
          <mxGeometry y="60" width="180" height="30" as="geometry" />
        </mxCell>
        <mxCell id="wcE6s_NSLzB1YOrK4coj-58" value="FK" style="shape=partialRectangle;connectable=0;fillColor=none;top=0;left=0;bottom=0;right=0;editable=1;overflow=hidden;" vertex="1" parent="wcE6s_NSLzB1YOrK4coj-57">
          <mxGeometry width="60" height="30" as="geometry" />
        </mxCell>
        <mxCell id="wcE6s_NSLzB1YOrK4coj-59" value="AisleID" style="shape=partialRectangle;connectable=0;fillColor=none;top=0;left=0;bottom=0;right=0;align=left;spacingLeft=6;overflow=hidden;" vertex="1" parent="wcE6s_NSLzB1YOrK4coj-57">
          <mxGeometry x="60" width="120" height="30" as="geometry" />
        </mxCell>
        <mxCell id="wcE6s_NSLzB1YOrK4coj-85" style="shape=partialRectangle;collapsible=0;dropTarget=0;pointerEvents=0;fillColor=none;top=0;left=0;bottom=0;right=0;points=[[0,0.5],[1,0.5]];portConstraint=eastwest;" vertex="1" parent="wcE6s_NSLzB1YOrK4coj-50">
          <mxGeometry y="90" width="180" height="30" as="geometry" />
        </mxCell>
        <mxCell id="wcE6s_NSLzB1YOrK4coj-86" style="shape=partialRectangle;connectable=0;fillColor=none;top=0;left=0;bottom=0;right=0;editable=1;overflow=hidden;" vertex="1" parent="wcE6s_NSLzB1YOrK4coj-85">
          <mxGeometry width="60" height="30" as="geometry" />
        </mxCell>
        <mxCell id="wcE6s_NSLzB1YOrK4coj-87" value="RackSideFlag" style="shape=partialRectangle;connectable=0;fillColor=none;top=0;left=0;bottom=0;right=0;align=left;spacingLeft=6;overflow=hidden;" vertex="1" parent="wcE6s_NSLzB1YOrK4coj-85">
          <mxGeometry x="60" width="120" height="30" as="geometry" />
        </mxCell>
        <mxCell id="wcE6s_NSLzB1YOrK4coj-60" value="" style="shape=partialRectangle;collapsible=0;dropTarget=0;pointerEvents=0;fillColor=none;top=0;left=0;bottom=0;right=0;points=[[0,0.5],[1,0.5]];portConstraint=eastwest;" vertex="1" parent="wcE6s_NSLzB1YOrK4coj-50">
          <mxGeometry y="120" width="180" height="30" as="geometry" />
        </mxCell>
        <mxCell id="wcE6s_NSLzB1YOrK4coj-61" value="" style="shape=partialRectangle;connectable=0;fillColor=none;top=0;left=0;bottom=0;right=0;editable=1;overflow=hidden;" vertex="1" parent="wcE6s_NSLzB1YOrK4coj-60">
          <mxGeometry width="60" height="30" as="geometry" />
        </mxCell>
        <mxCell id="wcE6s_NSLzB1YOrK4coj-62" value="RackIdx" style="shape=partialRectangle;connectable=0;fillColor=none;top=0;left=0;bottom=0;right=0;align=left;spacingLeft=6;overflow=hidden;" vertex="1" parent="wcE6s_NSLzB1YOrK4coj-60">
          <mxGeometry x="60" width="120" height="30" as="geometry" />
        </mxCell>
        <mxCell id="wcE6s_NSLzB1YOrK4coj-82" style="shape=partialRectangle;collapsible=0;dropTarget=0;pointerEvents=0;fillColor=none;top=0;left=0;bottom=0;right=0;points=[[0,0.5],[1,0.5]];portConstraint=eastwest;" vertex="1" parent="wcE6s_NSLzB1YOrK4coj-50">
          <mxGeometry y="150" width="180" height="30" as="geometry" />
        </mxCell>
        <mxCell id="wcE6s_NSLzB1YOrK4coj-83" style="shape=partialRectangle;connectable=0;fillColor=none;top=0;left=0;bottom=0;right=0;editable=1;overflow=hidden;" vertex="1" parent="wcE6s_NSLzB1YOrK4coj-82">
          <mxGeometry width="60" height="30" as="geometry" />
        </mxCell>
        <mxCell id="wcE6s_NSLzB1YOrK4coj-84" value="AisleSideFlag" style="shape=partialRectangle;connectable=0;fillColor=none;top=0;left=0;bottom=0;right=0;align=left;spacingLeft=6;overflow=hidden;" vertex="1" parent="wcE6s_NSLzB1YOrK4coj-82">
          <mxGeometry x="60" width="120" height="30" as="geometry" />
        </mxCell>
        <mxCell id="wcE6s_NSLzB1YOrK4coj-79" style="shape=partialRectangle;collapsible=0;dropTarget=0;pointerEvents=0;fillColor=none;top=0;left=0;bottom=0;right=0;points=[[0,0.5],[1,0.5]];portConstraint=eastwest;" vertex="1" parent="wcE6s_NSLzB1YOrK4coj-50">
          <mxGeometry y="180" width="180" height="30" as="geometry" />
        </mxCell>
        <mxCell id="wcE6s_NSLzB1YOrK4coj-80" style="shape=partialRectangle;connectable=0;fillColor=none;top=0;left=0;bottom=0;right=0;editable=1;overflow=hidden;" vertex="1" parent="wcE6s_NSLzB1YOrK4coj-79">
          <mxGeometry width="60" height="30" as="geometry" />
        </mxCell>
        <mxCell id="wcE6s_NSLzB1YOrK4coj-81" value="Level" style="shape=partialRectangle;connectable=0;fillColor=none;top=0;left=0;bottom=0;right=0;align=left;spacingLeft=6;overflow=hidden;" vertex="1" parent="wcE6s_NSLzB1YOrK4coj-79">
          <mxGeometry x="60" width="120" height="30" as="geometry" />
        </mxCell>
        <mxCell id="wcE6s_NSLzB1YOrK4coj-76" style="shape=partialRectangle;collapsible=0;dropTarget=0;pointerEvents=0;fillColor=none;top=0;left=0;bottom=0;right=0;points=[[0,0.5],[1,0.5]];portConstraint=eastwest;" vertex="1" parent="wcE6s_NSLzB1YOrK4coj-50">
          <mxGeometry y="210" width="180" height="30" as="geometry" />
        </mxCell>
        <mxCell id="wcE6s_NSLzB1YOrK4coj-77" style="shape=partialRectangle;connectable=0;fillColor=none;top=0;left=0;bottom=0;right=0;editable=1;overflow=hidden;" vertex="1" parent="wcE6s_NSLzB1YOrK4coj-76">
          <mxGeometry width="60" height="30" as="geometry" />
        </mxCell>
        <mxCell id="wcE6s_NSLzB1YOrK4coj-78" value="Position" style="shape=partialRectangle;connectable=0;fillColor=none;top=0;left=0;bottom=0;right=0;align=left;spacingLeft=6;overflow=hidden;" vertex="1" parent="wcE6s_NSLzB1YOrK4coj-76">
          <mxGeometry x="60" width="120" height="30" as="geometry" />
        </mxCell>
        <mxCell id="wcE6s_NSLzB1YOrK4coj-73" style="shape=partialRectangle;collapsible=0;dropTarget=0;pointerEvents=0;fillColor=none;top=0;left=0;bottom=0;right=0;points=[[0,0.5],[1,0.5]];portConstraint=eastwest;" vertex="1" parent="wcE6s_NSLzB1YOrK4coj-50">
          <mxGeometry y="240" width="180" height="30" as="geometry" />
        </mxCell>
        <mxCell id="wcE6s_NSLzB1YOrK4coj-74" style="shape=partialRectangle;connectable=0;fillColor=none;top=0;left=0;bottom=0;right=0;editable=1;overflow=hidden;" vertex="1" parent="wcE6s_NSLzB1YOrK4coj-73">
          <mxGeometry width="60" height="30" as="geometry" />
        </mxCell>
        <mxCell id="wcE6s_NSLzB1YOrK4coj-75" style="shape=partialRectangle;connectable=0;fillColor=none;top=0;left=0;bottom=0;right=0;align=left;spacingLeft=6;overflow=hidden;" vertex="1" parent="wcE6s_NSLzB1YOrK4coj-73">
          <mxGeometry x="60" width="120" height="30" as="geometry" />
        </mxCell>
        <mxCell id="wcE6s_NSLzB1YOrK4coj-70" style="shape=partialRectangle;collapsible=0;dropTarget=0;pointerEvents=0;fillColor=none;top=0;left=0;bottom=0;right=0;points=[[0,0.5],[1,0.5]];portConstraint=eastwest;" vertex="1" parent="wcE6s_NSLzB1YOrK4coj-50">
          <mxGeometry y="270" width="180" height="30" as="geometry" />
        </mxCell>
        <mxCell id="wcE6s_NSLzB1YOrK4coj-71" style="shape=partialRectangle;connectable=0;fillColor=none;top=0;left=0;bottom=0;right=0;editable=1;overflow=hidden;" vertex="1" parent="wcE6s_NSLzB1YOrK4coj-70">
          <mxGeometry width="60" height="30" as="geometry" />
        </mxCell>
        <mxCell id="wcE6s_NSLzB1YOrK4coj-72" style="shape=partialRectangle;connectable=0;fillColor=none;top=0;left=0;bottom=0;right=0;align=left;spacingLeft=6;overflow=hidden;" vertex="1" parent="wcE6s_NSLzB1YOrK4coj-70">
          <mxGeometry x="60" width="120" height="30" as="geometry" />
        </mxCell>
        <mxCell id="wcE6s_NSLzB1YOrK4coj-67" style="shape=partialRectangle;collapsible=0;dropTarget=0;pointerEvents=0;fillColor=none;top=0;left=0;bottom=0;right=0;points=[[0,0.5],[1,0.5]];portConstraint=eastwest;" vertex="1" parent="wcE6s_NSLzB1YOrK4coj-50">
          <mxGeometry y="300" width="180" height="30" as="geometry" />
        </mxCell>
        <mxCell id="wcE6s_NSLzB1YOrK4coj-68" style="shape=partialRectangle;connectable=0;fillColor=none;top=0;left=0;bottom=0;right=0;editable=1;overflow=hidden;" vertex="1" parent="wcE6s_NSLzB1YOrK4coj-67">
          <mxGeometry width="60" height="30" as="geometry" />
        </mxCell>
        <mxCell id="wcE6s_NSLzB1YOrK4coj-69" style="shape=partialRectangle;connectable=0;fillColor=none;top=0;left=0;bottom=0;right=0;align=left;spacingLeft=6;overflow=hidden;" vertex="1" parent="wcE6s_NSLzB1YOrK4coj-67">
          <mxGeometry x="60" width="120" height="30" as="geometry" />
        </mxCell>
        <mxCell id="wcE6s_NSLzB1YOrK4coj-64" style="shape=partialRectangle;collapsible=0;dropTarget=0;pointerEvents=0;fillColor=none;top=0;left=0;bottom=0;right=0;points=[[0,0.5],[1,0.5]];portConstraint=eastwest;" vertex="1" parent="wcE6s_NSLzB1YOrK4coj-50">
          <mxGeometry y="330" width="180" height="30" as="geometry" />
        </mxCell>
        <mxCell id="wcE6s_NSLzB1YOrK4coj-65" style="shape=partialRectangle;connectable=0;fillColor=none;top=0;left=0;bottom=0;right=0;editable=1;overflow=hidden;" vertex="1" parent="wcE6s_NSLzB1YOrK4coj-64">
          <mxGeometry width="60" height="30" as="geometry" />
        </mxCell>
        <mxCell id="wcE6s_NSLzB1YOrK4coj-66" style="shape=partialRectangle;connectable=0;fillColor=none;top=0;left=0;bottom=0;right=0;align=left;spacingLeft=6;overflow=hidden;" vertex="1" parent="wcE6s_NSLzB1YOrK4coj-64">
          <mxGeometry x="60" width="120" height="30" as="geometry" />
        </mxCell>
        <mxCell id="wcE6s_NSLzB1YOrK4coj-63" style="edgeStyle=orthogonalEdgeStyle;rounded=0;orthogonalLoop=1;jettySize=auto;html=1;exitX=0;exitY=0.5;exitDx=0;exitDy=0;" edge="1" parent="1" source="wcE6s_NSLzB1YOrK4coj-57" target="wcE6s_NSLzB1YOrK4coj-2">
          <mxGeometry relative="1" as="geometry" />
        </mxCell>
        <mxCell id="wcE6s_NSLzB1YOrK4coj-88" value="ExecutionLogs" style="shape=table;startSize=30;container=1;collapsible=1;childLayout=tableLayout;fixedRows=1;rowLines=0;fontStyle=1;align=center;resizeLast=1;" vertex="1" parent="1">
          <mxGeometry x="620" y="120" width="180" height="340" as="geometry" />
        </mxCell>
        <mxCell id="wcE6s_NSLzB1YOrK4coj-89" value="" style="shape=partialRectangle;collapsible=0;dropTarget=0;pointerEvents=0;fillColor=none;top=0;left=0;bottom=1;right=0;points=[[0,0.5],[1,0.5]];portConstraint=eastwest;" vertex="1" parent="wcE6s_NSLzB1YOrK4coj-88">
          <mxGeometry y="30" width="180" height="30" as="geometry" />
        </mxCell>
        <mxCell id="wcE6s_NSLzB1YOrK4coj-90" value="PK" style="shape=partialRectangle;connectable=0;fillColor=none;top=0;left=0;bottom=0;right=0;fontStyle=1;overflow=hidden;" vertex="1" parent="wcE6s_NSLzB1YOrK4coj-89">
          <mxGeometry width="30" height="30" as="geometry" />
        </mxCell>
        <mxCell id="wcE6s_NSLzB1YOrK4coj-91" value="execID" style="shape=partialRectangle;connectable=0;fillColor=none;top=0;left=0;bottom=0;right=0;align=left;spacingLeft=6;fontStyle=5;overflow=hidden;" vertex="1" parent="wcE6s_NSLzB1YOrK4coj-89">
          <mxGeometry x="30" width="150" height="30" as="geometry" />
        </mxCell>
        <mxCell id="wcE6s_NSLzB1YOrK4coj-92" value="" style="shape=partialRectangle;collapsible=0;dropTarget=0;pointerEvents=0;fillColor=none;top=0;left=0;bottom=0;right=0;points=[[0,0.5],[1,0.5]];portConstraint=eastwest;" vertex="1" parent="wcE6s_NSLzB1YOrK4coj-88">
          <mxGeometry y="60" width="180" height="30" as="geometry" />
        </mxCell>
        <mxCell id="wcE6s_NSLzB1YOrK4coj-93" value="" style="shape=partialRectangle;connectable=0;fillColor=none;top=0;left=0;bottom=0;right=0;editable=1;overflow=hidden;" vertex="1" parent="wcE6s_NSLzB1YOrK4coj-92">
          <mxGeometry width="30" height="30" as="geometry" />
        </mxCell>
        <mxCell id="wcE6s_NSLzB1YOrK4coj-94" value="TaskGroupID" style="shape=partialRectangle;connectable=0;fillColor=none;top=0;left=0;bottom=0;right=0;align=left;spacingLeft=6;overflow=hidden;" vertex="1" parent="wcE6s_NSLzB1YOrK4coj-92">
          <mxGeometry x="30" width="150" height="30" as="geometry" />
        </mxCell>
        <mxCell id="wcE6s_NSLzB1YOrK4coj-110" style="shape=partialRectangle;collapsible=0;dropTarget=0;pointerEvents=0;fillColor=none;top=0;left=0;bottom=0;right=0;points=[[0,0.5],[1,0.5]];portConstraint=eastwest;" vertex="1" parent="wcE6s_NSLzB1YOrK4coj-88">
          <mxGeometry y="90" width="180" height="30" as="geometry" />
        </mxCell>
        <mxCell id="wcE6s_NSLzB1YOrK4coj-111" style="shape=partialRectangle;connectable=0;fillColor=none;top=0;left=0;bottom=0;right=0;editable=1;overflow=hidden;" vertex="1" parent="wcE6s_NSLzB1YOrK4coj-110">
          <mxGeometry width="30" height="30" as="geometry" />
        </mxCell>
        <mxCell id="wcE6s_NSLzB1YOrK4coj-112" value="ExecSeq" style="shape=partialRectangle;connectable=0;fillColor=none;top=0;left=0;bottom=0;right=0;align=left;spacingLeft=6;overflow=hidden;" vertex="1" parent="wcE6s_NSLzB1YOrK4coj-110">
          <mxGeometry x="30" width="150" height="30" as="geometry" />
        </mxCell>
        <mxCell id="wcE6s_NSLzB1YOrK4coj-107" style="shape=partialRectangle;collapsible=0;dropTarget=0;pointerEvents=0;fillColor=none;top=0;left=0;bottom=0;right=0;points=[[0,0.5],[1,0.5]];portConstraint=eastwest;" vertex="1" parent="wcE6s_NSLzB1YOrK4coj-88">
          <mxGeometry y="120" width="180" height="30" as="geometry" />
        </mxCell>
        <mxCell id="wcE6s_NSLzB1YOrK4coj-108" style="shape=partialRectangle;connectable=0;fillColor=none;top=0;left=0;bottom=0;right=0;editable=1;overflow=hidden;" vertex="1" parent="wcE6s_NSLzB1YOrK4coj-107">
          <mxGeometry width="30" height="30" as="geometry" />
        </mxCell>
        <mxCell id="wcE6s_NSLzB1YOrK4coj-109" value="Location" style="shape=partialRectangle;connectable=0;fillColor=none;top=0;left=0;bottom=0;right=0;align=left;spacingLeft=6;overflow=hidden;" vertex="1" parent="wcE6s_NSLzB1YOrK4coj-107">
          <mxGeometry x="30" width="150" height="30" as="geometry" />
        </mxCell>
        <mxCell id="wcE6s_NSLzB1YOrK4coj-104" style="shape=partialRectangle;collapsible=0;dropTarget=0;pointerEvents=0;fillColor=none;top=0;left=0;bottom=0;right=0;points=[[0,0.5],[1,0.5]];portConstraint=eastwest;" vertex="1" parent="wcE6s_NSLzB1YOrK4coj-88">
          <mxGeometry y="150" width="180" height="30" as="geometry" />
        </mxCell>
        <mxCell id="wcE6s_NSLzB1YOrK4coj-105" style="shape=partialRectangle;connectable=0;fillColor=none;top=0;left=0;bottom=0;right=0;editable=1;overflow=hidden;" vertex="1" parent="wcE6s_NSLzB1YOrK4coj-104">
          <mxGeometry width="30" height="30" as="geometry" />
        </mxCell>
        <mxCell id="wcE6s_NSLzB1YOrK4coj-106" value="Quantity" style="shape=partialRectangle;connectable=0;fillColor=none;top=0;left=0;bottom=0;right=0;align=left;spacingLeft=6;overflow=hidden;" vertex="1" parent="wcE6s_NSLzB1YOrK4coj-104">
          <mxGeometry x="30" width="150" height="30" as="geometry" />
        </mxCell>
        <mxCell id="wcE6s_NSLzB1YOrK4coj-101" style="shape=partialRectangle;collapsible=0;dropTarget=0;pointerEvents=0;fillColor=none;top=0;left=0;bottom=0;right=0;points=[[0,0.5],[1,0.5]];portConstraint=eastwest;" vertex="1" parent="wcE6s_NSLzB1YOrK4coj-88">
          <mxGeometry y="180" width="180" height="30" as="geometry" />
        </mxCell>
        <mxCell id="wcE6s_NSLzB1YOrK4coj-102" style="shape=partialRectangle;connectable=0;fillColor=none;top=0;left=0;bottom=0;right=0;editable=1;overflow=hidden;" vertex="1" parent="wcE6s_NSLzB1YOrK4coj-101">
          <mxGeometry width="30" height="30" as="geometry" />
        </mxCell>
        <mxCell id="wcE6s_NSLzB1YOrK4coj-103" value="OrderLinesCount" style="shape=partialRectangle;connectable=0;fillColor=none;top=0;left=0;bottom=0;right=0;align=left;spacingLeft=6;overflow=hidden;" vertex="1" parent="wcE6s_NSLzB1YOrK4coj-101">
          <mxGeometry x="30" width="150" height="30" as="geometry" />
        </mxCell>
        <mxCell id="wcE6s_NSLzB1YOrK4coj-95" value="" style="shape=partialRectangle;collapsible=0;dropTarget=0;pointerEvents=0;fillColor=none;top=0;left=0;bottom=0;right=0;points=[[0,0.5],[1,0.5]];portConstraint=eastwest;" vertex="1" parent="wcE6s_NSLzB1YOrK4coj-88">
          <mxGeometry y="210" width="180" height="30" as="geometry" />
        </mxCell>
        <mxCell id="wcE6s_NSLzB1YOrK4coj-96" value="" style="shape=partialRectangle;connectable=0;fillColor=none;top=0;left=0;bottom=0;right=0;editable=1;overflow=hidden;" vertex="1" parent="wcE6s_NSLzB1YOrK4coj-95">
          <mxGeometry width="30" height="30" as="geometry" />
        </mxCell>
        <mxCell id="wcE6s_NSLzB1YOrK4coj-97" value="StartTime" style="shape=partialRectangle;connectable=0;fillColor=none;top=0;left=0;bottom=0;right=0;align=left;spacingLeft=6;overflow=hidden;" vertex="1" parent="wcE6s_NSLzB1YOrK4coj-95">
          <mxGeometry x="30" width="150" height="30" as="geometry" />
        </mxCell>
        <mxCell id="wcE6s_NSLzB1YOrK4coj-98" value="" style="shape=partialRectangle;collapsible=0;dropTarget=0;pointerEvents=0;fillColor=none;top=0;left=0;bottom=0;right=0;points=[[0,0.5],[1,0.5]];portConstraint=eastwest;" vertex="1" parent="wcE6s_NSLzB1YOrK4coj-88">
          <mxGeometry y="240" width="180" height="30" as="geometry" />
        </mxCell>
        <mxCell id="wcE6s_NSLzB1YOrK4coj-99" value="" style="shape=partialRectangle;connectable=0;fillColor=none;top=0;left=0;bottom=0;right=0;editable=1;overflow=hidden;" vertex="1" parent="wcE6s_NSLzB1YOrK4coj-98">
          <mxGeometry width="30" height="30" as="geometry" />
        </mxCell>
        <mxCell id="wcE6s_NSLzB1YOrK4coj-100" value="EndTime" style="shape=partialRectangle;connectable=0;fillColor=none;top=0;left=0;bottom=0;right=0;align=left;spacingLeft=6;overflow=hidden;" vertex="1" parent="wcE6s_NSLzB1YOrK4coj-98">
          <mxGeometry x="30" width="150" height="30" as="geometry" />
        </mxCell>
        <mxCell id="wcE6s_NSLzB1YOrK4coj-144" style="shape=partialRectangle;collapsible=0;dropTarget=0;pointerEvents=0;fillColor=none;top=0;left=0;bottom=0;right=0;points=[[0,0.5],[1,0.5]];portConstraint=eastwest;" vertex="1" parent="wcE6s_NSLzB1YOrK4coj-88">
          <mxGeometry y="270" width="180" height="30" as="geometry" />
        </mxCell>
        <mxCell id="wcE6s_NSLzB1YOrK4coj-145" style="shape=partialRectangle;connectable=0;fillColor=none;top=0;left=0;bottom=0;right=0;editable=1;overflow=hidden;" vertex="1" parent="wcE6s_NSLzB1YOrK4coj-144">
          <mxGeometry width="30" height="30" as="geometry" />
        </mxCell>
        <mxCell id="wcE6s_NSLzB1YOrK4coj-146" style="shape=partialRectangle;connectable=0;fillColor=none;top=0;left=0;bottom=0;right=0;align=left;spacingLeft=6;overflow=hidden;" vertex="1" parent="wcE6s_NSLzB1YOrK4coj-144">
          <mxGeometry x="30" width="150" height="30" as="geometry" />
        </mxCell>
        <mxCell id="wcE6s_NSLzB1YOrK4coj-141" style="shape=partialRectangle;collapsible=0;dropTarget=0;pointerEvents=0;fillColor=none;top=0;left=0;bottom=0;right=0;points=[[0,0.5],[1,0.5]];portConstraint=eastwest;" vertex="1" parent="wcE6s_NSLzB1YOrK4coj-88">
          <mxGeometry y="300" width="180" height="30" as="geometry" />
        </mxCell>
        <mxCell id="wcE6s_NSLzB1YOrK4coj-142" style="shape=partialRectangle;connectable=0;fillColor=none;top=0;left=0;bottom=0;right=0;editable=1;overflow=hidden;" vertex="1" parent="wcE6s_NSLzB1YOrK4coj-141">
          <mxGeometry width="30" height="30" as="geometry" />
        </mxCell>
        <mxCell id="wcE6s_NSLzB1YOrK4coj-143" style="shape=partialRectangle;connectable=0;fillColor=none;top=0;left=0;bottom=0;right=0;align=left;spacingLeft=6;overflow=hidden;" vertex="1" parent="wcE6s_NSLzB1YOrK4coj-141">
          <mxGeometry x="30" width="150" height="30" as="geometry" />
        </mxCell>
        <mxCell id="wcE6s_NSLzB1YOrK4coj-113" value="TaskGroups" style="shape=table;startSize=30;container=1;collapsible=1;childLayout=tableLayout;fixedRows=1;rowLines=0;fontStyle=1;align=center;resizeLast=1;" vertex="1" parent="1">
          <mxGeometry x="860" y="120" width="180" height="340" as="geometry" />
        </mxCell>
        <mxCell id="wcE6s_NSLzB1YOrK4coj-114" value="" style="shape=partialRectangle;collapsible=0;dropTarget=0;pointerEvents=0;fillColor=none;top=0;left=0;bottom=1;right=0;points=[[0,0.5],[1,0.5]];portConstraint=eastwest;" vertex="1" parent="wcE6s_NSLzB1YOrK4coj-113">
          <mxGeometry y="30" width="180" height="30" as="geometry" />
        </mxCell>
        <mxCell id="wcE6s_NSLzB1YOrK4coj-115" value="PK" style="shape=partialRectangle;connectable=0;fillColor=none;top=0;left=0;bottom=0;right=0;fontStyle=1;overflow=hidden;" vertex="1" parent="wcE6s_NSLzB1YOrK4coj-114">
          <mxGeometry width="30" height="30" as="geometry" />
        </mxCell>
        <mxCell id="wcE6s_NSLzB1YOrK4coj-116" value="TaskGroupID" style="shape=partialRectangle;connectable=0;fillColor=none;top=0;left=0;bottom=0;right=0;align=left;spacingLeft=6;fontStyle=5;overflow=hidden;" vertex="1" parent="wcE6s_NSLzB1YOrK4coj-114">
          <mxGeometry x="30" width="150" height="30" as="geometry" />
        </mxCell>
        <mxCell id="wcE6s_NSLzB1YOrK4coj-117" value="" style="shape=partialRectangle;collapsible=0;dropTarget=0;pointerEvents=0;fillColor=none;top=0;left=0;bottom=0;right=0;points=[[0,0.5],[1,0.5]];portConstraint=eastwest;" vertex="1" parent="wcE6s_NSLzB1YOrK4coj-113">
          <mxGeometry y="60" width="180" height="30" as="geometry" />
        </mxCell>
        <mxCell id="wcE6s_NSLzB1YOrK4coj-118" value="" style="shape=partialRectangle;connectable=0;fillColor=none;top=0;left=0;bottom=0;right=0;editable=1;overflow=hidden;" vertex="1" parent="wcE6s_NSLzB1YOrK4coj-117">
          <mxGeometry width="30" height="30" as="geometry" />
        </mxCell>
        <mxCell id="wcE6s_NSLzB1YOrK4coj-119" value="TaskGroupName" style="shape=partialRectangle;connectable=0;fillColor=none;top=0;left=0;bottom=0;right=0;align=left;spacingLeft=6;overflow=hidden;" vertex="1" parent="wcE6s_NSLzB1YOrK4coj-117">
          <mxGeometry x="30" width="150" height="30" as="geometry" />
        </mxCell>
        <mxCell id="wcE6s_NSLzB1YOrK4coj-120" value="" style="shape=partialRectangle;collapsible=0;dropTarget=0;pointerEvents=0;fillColor=none;top=0;left=0;bottom=0;right=0;points=[[0,0.5],[1,0.5]];portConstraint=eastwest;" vertex="1" parent="wcE6s_NSLzB1YOrK4coj-113">
          <mxGeometry y="90" width="180" height="30" as="geometry" />
        </mxCell>
        <mxCell id="wcE6s_NSLzB1YOrK4coj-121" value="" style="shape=partialRectangle;connectable=0;fillColor=none;top=0;left=0;bottom=0;right=0;editable=1;overflow=hidden;" vertex="1" parent="wcE6s_NSLzB1YOrK4coj-120">
          <mxGeometry width="30" height="30" as="geometry" />
        </mxCell>
        <mxCell id="wcE6s_NSLzB1YOrK4coj-122" value="PickerID" style="shape=partialRectangle;connectable=0;fillColor=none;top=0;left=0;bottom=0;right=0;align=left;spacingLeft=6;overflow=hidden;" vertex="1" parent="wcE6s_NSLzB1YOrK4coj-120">
          <mxGeometry x="30" width="150" height="30" as="geometry" />
        </mxCell>
        <mxCell id="wcE6s_NSLzB1YOrK4coj-123" value="" style="shape=partialRectangle;collapsible=0;dropTarget=0;pointerEvents=0;fillColor=none;top=0;left=0;bottom=0;right=0;points=[[0,0.5],[1,0.5]];portConstraint=eastwest;" vertex="1" parent="wcE6s_NSLzB1YOrK4coj-113">
          <mxGeometry y="120" width="180" height="30" as="geometry" />
        </mxCell>
        <mxCell id="wcE6s_NSLzB1YOrK4coj-124" value="" style="shape=partialRectangle;connectable=0;fillColor=none;top=0;left=0;bottom=0;right=0;editable=1;overflow=hidden;" vertex="1" parent="wcE6s_NSLzB1YOrK4coj-123">
          <mxGeometry width="30" height="30" as="geometry" />
        </mxCell>
        <mxCell id="wcE6s_NSLzB1YOrK4coj-125" value="StartTime" style="shape=partialRectangle;connectable=0;fillColor=none;top=0;left=0;bottom=0;right=0;align=left;spacingLeft=6;overflow=hidden;" vertex="1" parent="wcE6s_NSLzB1YOrK4coj-123">
          <mxGeometry x="30" width="150" height="30" as="geometry" />
        </mxCell>
        <mxCell id="wcE6s_NSLzB1YOrK4coj-132" style="shape=partialRectangle;collapsible=0;dropTarget=0;pointerEvents=0;fillColor=none;top=0;left=0;bottom=0;right=0;points=[[0,0.5],[1,0.5]];portConstraint=eastwest;" vertex="1" parent="wcE6s_NSLzB1YOrK4coj-113">
          <mxGeometry y="150" width="180" height="30" as="geometry" />
        </mxCell>
        <mxCell id="wcE6s_NSLzB1YOrK4coj-133" style="shape=partialRectangle;connectable=0;fillColor=none;top=0;left=0;bottom=0;right=0;editable=1;overflow=hidden;" vertex="1" parent="wcE6s_NSLzB1YOrK4coj-132">
          <mxGeometry width="30" height="30" as="geometry" />
        </mxCell>
        <mxCell id="wcE6s_NSLzB1YOrK4coj-134" value="EndTime" style="shape=partialRectangle;connectable=0;fillColor=none;top=0;left=0;bottom=0;right=0;align=left;spacingLeft=6;overflow=hidden;" vertex="1" parent="wcE6s_NSLzB1YOrK4coj-132">
          <mxGeometry x="30" width="150" height="30" as="geometry" />
        </mxCell>
        <mxCell id="wcE6s_NSLzB1YOrK4coj-129" style="shape=partialRectangle;collapsible=0;dropTarget=0;pointerEvents=0;fillColor=none;top=0;left=0;bottom=0;right=0;points=[[0,0.5],[1,0.5]];portConstraint=eastwest;" vertex="1" parent="wcE6s_NSLzB1YOrK4coj-113">
          <mxGeometry y="180" width="180" height="30" as="geometry" />
        </mxCell>
        <mxCell id="wcE6s_NSLzB1YOrK4coj-130" style="shape=partialRectangle;connectable=0;fillColor=none;top=0;left=0;bottom=0;right=0;editable=1;overflow=hidden;" vertex="1" parent="wcE6s_NSLzB1YOrK4coj-129">
          <mxGeometry width="30" height="30" as="geometry" />
        </mxCell>
        <mxCell id="wcE6s_NSLzB1YOrK4coj-131" value="TotalItemsCount" style="shape=partialRectangle;connectable=0;fillColor=none;top=0;left=0;bottom=0;right=0;align=left;spacingLeft=6;overflow=hidden;" vertex="1" parent="wcE6s_NSLzB1YOrK4coj-129">
          <mxGeometry x="30" width="150" height="30" as="geometry" />
        </mxCell>
        <mxCell id="wcE6s_NSLzB1YOrK4coj-126" style="shape=partialRectangle;collapsible=0;dropTarget=0;pointerEvents=0;fillColor=none;top=0;left=0;bottom=0;right=0;points=[[0,0.5],[1,0.5]];portConstraint=eastwest;" vertex="1" parent="wcE6s_NSLzB1YOrK4coj-113">
          <mxGeometry y="210" width="180" height="30" as="geometry" />
        </mxCell>
        <mxCell id="wcE6s_NSLzB1YOrK4coj-127" style="shape=partialRectangle;connectable=0;fillColor=none;top=0;left=0;bottom=0;right=0;editable=1;overflow=hidden;" vertex="1" parent="wcE6s_NSLzB1YOrK4coj-126">
          <mxGeometry width="30" height="30" as="geometry" />
        </mxCell>
        <mxCell id="wcE6s_NSLzB1YOrK4coj-128" value="TotalLocationCount" style="shape=partialRectangle;connectable=0;fillColor=none;top=0;left=0;bottom=0;right=0;align=left;spacingLeft=6;overflow=hidden;" vertex="1" parent="wcE6s_NSLzB1YOrK4coj-126">
          <mxGeometry x="30" width="150" height="30" as="geometry" />
        </mxCell>
        <mxCell id="wcE6s_NSLzB1YOrK4coj-135" style="shape=partialRectangle;collapsible=0;dropTarget=0;pointerEvents=0;fillColor=none;top=0;left=0;bottom=0;right=0;points=[[0,0.5],[1,0.5]];portConstraint=eastwest;" vertex="1" parent="wcE6s_NSLzB1YOrK4coj-113">
          <mxGeometry y="240" width="180" height="30" as="geometry" />
        </mxCell>
        <mxCell id="wcE6s_NSLzB1YOrK4coj-136" style="shape=partialRectangle;connectable=0;fillColor=none;top=0;left=0;bottom=0;right=0;editable=1;overflow=hidden;" vertex="1" parent="wcE6s_NSLzB1YOrK4coj-135">
          <mxGeometry width="30" height="30" as="geometry" />
        </mxCell>
        <mxCell id="wcE6s_NSLzB1YOrK4coj-137" value="TotalOrderExecCount" style="shape=partialRectangle;connectable=0;fillColor=none;top=0;left=0;bottom=0;right=0;align=left;spacingLeft=6;overflow=hidden;" vertex="1" parent="wcE6s_NSLzB1YOrK4coj-135">
          <mxGeometry x="30" width="150" height="30" as="geometry" />
        </mxCell>
        <mxCell id="wcE6s_NSLzB1YOrK4coj-150" style="shape=partialRectangle;collapsible=0;dropTarget=0;pointerEvents=0;fillColor=none;top=0;left=0;bottom=0;right=0;points=[[0,0.5],[1,0.5]];portConstraint=eastwest;" vertex="1" parent="wcE6s_NSLzB1YOrK4coj-113">
          <mxGeometry y="270" width="180" height="30" as="geometry" />
        </mxCell>
        <mxCell id="wcE6s_NSLzB1YOrK4coj-151" style="shape=partialRectangle;connectable=0;fillColor=none;top=0;left=0;bottom=0;right=0;editable=1;overflow=hidden;" vertex="1" parent="wcE6s_NSLzB1YOrK4coj-150">
          <mxGeometry width="30" height="30" as="geometry" />
        </mxCell>
        <mxCell id="wcE6s_NSLzB1YOrK4coj-152" style="shape=partialRectangle;connectable=0;fillColor=none;top=0;left=0;bottom=0;right=0;align=left;spacingLeft=6;overflow=hidden;" vertex="1" parent="wcE6s_NSLzB1YOrK4coj-150">
          <mxGeometry x="30" width="150" height="30" as="geometry" />
        </mxCell>
        <mxCell id="wcE6s_NSLzB1YOrK4coj-147" style="shape=partialRectangle;collapsible=0;dropTarget=0;pointerEvents=0;fillColor=none;top=0;left=0;bottom=0;right=0;points=[[0,0.5],[1,0.5]];portConstraint=eastwest;" vertex="1" parent="wcE6s_NSLzB1YOrK4coj-113">
          <mxGeometry y="300" width="180" height="30" as="geometry" />
        </mxCell>
        <mxCell id="wcE6s_NSLzB1YOrK4coj-148" style="shape=partialRectangle;connectable=0;fillColor=none;top=0;left=0;bottom=0;right=0;editable=1;overflow=hidden;" vertex="1" parent="wcE6s_NSLzB1YOrK4coj-147">
          <mxGeometry width="30" height="30" as="geometry" />
        </mxCell>
        <mxCell id="wcE6s_NSLzB1YOrK4coj-149" style="shape=partialRectangle;connectable=0;fillColor=none;top=0;left=0;bottom=0;right=0;align=left;spacingLeft=6;overflow=hidden;" vertex="1" parent="wcE6s_NSLzB1YOrK4coj-147">
          <mxGeometry x="30" width="150" height="30" as="geometry" />
        </mxCell>
        <mxCell id="wcE6s_NSLzB1YOrK4coj-153" style="edgeStyle=orthogonalEdgeStyle;rounded=0;orthogonalLoop=1;jettySize=auto;html=1;exitX=1;exitY=0.5;exitDx=0;exitDy=0;" edge="1" parent="1" source="wcE6s_NSLzB1YOrK4coj-92" target="wcE6s_NSLzB1YOrK4coj-114">
          <mxGeometry relative="1" as="geometry" />
        </mxCell>
        <mxCell id="wcE6s_NSLzB1YOrK4coj-154" style="edgeStyle=orthogonalEdgeStyle;rounded=0;orthogonalLoop=1;jettySize=auto;html=1;exitX=0;exitY=0.5;exitDx=0;exitDy=0;entryX=1;entryY=0.5;entryDx=0;entryDy=0;" edge="1" parent="1" source="wcE6s_NSLzB1YOrK4coj-107" target="wcE6s_NSLzB1YOrK4coj-54">
          <mxGeometry relative="1" as="geometry" />
        </mxCell>
      </root>
    </mxGraphModel>
  </diagram>
</mxfile>
